<?xml version="1.0" encoding="UTF-8" standalone="no"?>
<!DOCTYPE svg PUBLIC "-//W3C//DTD SVG 1.1//EN" "http://www.w3.org/Graphics/SVG/1.1/DTD/svg11.dtd">
<!-- Created with Vectornator (http://vectornator.io/) -->
<svg stroke-miterlimit="10" style="fill-rule:nonzero;clip-rule:evenodd;stroke-linecap:round;stroke-linejoin:round;"
  version="1.1" viewBox="0 0 28 28" xml:space="preserve" xmlns="http://www.w3.org/2000/svg"
  xmlns:xlink="http://www.w3.org/1999/xlink">
  <defs />
  <g opacity="1">
    <path
      d="M7.53416 4.99782L13.4679 4.99782C13.6651 4.99782 13.8165 4.99782 13.9491 5.01058C14.891 5.10324 15.662 5.66941 15.9893 6.43196L5.01274 6.43196C5.34003 5.66941 6.11108 5.10324 7.053 5.01058C7.18391 4.99782 7.33523 4.99782 7.53416 4.99782ZM5.66392 7.31267C4.48227 7.31267 3.51314 8.02676 3.1901 8.97378C3.18302 8.99352 3.17622 9.01336 3.1697 9.03329C3.50804 8.93128 3.86084 8.86327 4.21703 8.81821C5.13515 8.70005 6.2964 8.70005 7.64467 8.70005L13.5036 8.70005C14.8519 8.70005 16.0123 8.70005 16.9313 8.81821C17.2883 8.86412 17.6403 8.93043 17.9786 9.03329C17.9724 9.01335 17.9659 8.99351 17.959 8.97378C17.636 8.02676 16.6669 7.31267 15.4844 7.31267C15.4844 7.31267 5.66392 7.31267 5.66392 7.31267Z"
      fill="#ffffff" fill-rule="nonzero" opacity="1" stroke="none" />
    <path
      d="M7.67188 9.70913L13.3302 9.70913C16.1985 9.70913 17.6335 9.70913 18.4394 10.5482C19.2444 11.3872 19.0548 12.6828 18.6757 15.2748L18.3169 17.7333C18.0194 19.7659 17.8706 20.7826 17.1081 21.3913C16.3455 22 15.2208 22 12.9706 22L8.03147 22C5.78208 22 4.65654 22 3.89399 21.3913C3.13145 20.7826 2.98268 19.7659 2.68514 17.7333L2.32639 15.2756C1.94639 12.6828 1.75682 11.3872 2.56272 10.5482C3.36863 9.70913 4.80361 9.70913 7.67188 9.70913ZM7.1006 18.5996C7.1006 18.2476 7.41769 17.962 7.80874 17.962L13.1933 17.962C13.5844 17.962 13.9015 18.2476 13.9015 18.5996C13.9015 18.9515 13.5844 19.2371 13.1933 19.2371L7.80874 19.2371C7.41769 19.2371 7.1006 18.9515 7.1006 18.5996Z"
      fill="#ffffff" fill-rule="evenodd" opacity="1" stroke="none" />
    <path d="M22 5L22 9" fill="none" opacity="1" stroke="#ffffff" stroke-linecap="round" stroke-linejoin="round"
      stroke-width="2" />
    <path d="M24 7L20 7" fill="none" opacity="1" stroke="#ffffff" stroke-linecap="round" stroke-linejoin="round"
      stroke-width="2" />
  </g>
</svg>