<?xml version="1.0" encoding="UTF-8" standalone="no"?>
<!DOCTYPE svg PUBLIC "-//W3C//DTD SVG 1.1//EN" "http://www.w3.org/Graphics/SVG/1.1/DTD/svg11.dtd">
<!-- Created with Vectornator (http://vectornator.io/) -->
<svg height="20" stroke-miterlimit="10"
  style="fill-rule:nonzero;clip-rule:evenodd;stroke-linecap:round;stroke-linejoin:round;" version="1.1"
  viewBox="0 0 24 24" width="20" xml:space="preserve" xmlns="http://www.w3.org/2000/svg"
  xmlns:xlink="http://www.w3.org/1999/xlink">
  <g>
    <path
      d="M21.2501 2.75L22.0001 2.75C22.4143 2.75 22.7501 3.08579 22.7501 3.5C22.7501 3.91421 22.4143 4.25 22.0001 4.25L21.2501 4.25L21.2501 5C21.2501 5.41421 20.9143 5.75 20.5001 5.75C20.0859 5.75 19.7501 5.41421 19.7501 5L19.7501 4.25L19.0001 4.25C18.5859 4.25 18.2501 3.91421 18.2501 3.5C18.2501 3.08579 18.5859 2.75 19.0001 2.75L19.7501 2.75L19.7501 2C19.7501 1.58579 20.0859 1.25 20.5001 1.25C20.9143 1.25 21.2501 1.58579 21.2501 2L21.2501 2.75Z"
      fill="#ffffff" fill-rule="nonzero" opacity="1" stroke="none" />
    <path
      d="M13.6 20L10.4 20C7.3832 20 5.8744 20 4.9376 19.0624C4 18.1256 4 16.6168 4 13.6L4 10.4C4 7.3832 4 5.8744 4.9376 4.9376C5.8744 4 7.3912 4 10.424 4C10.9088 4 11.2968 4 11.624 4.0136C11.6136 4.0776 11.608 4.1424 11.608 4.2088L11.6 6.476C11.6 7.3536 11.6 8.1296 11.684 8.7544C11.7752 9.432 11.984 10.1096 12.5376 10.6632C13.0896 11.2152 13.768 11.4248 14.4456 11.516C15.0704 11.6 15.8464 11.6 16.724 11.6L19.9656 11.6C20 12.0272 20 12.552 20 13.2504L20 13.6C20 16.6168 20 18.1256 19.0624 19.0624C18.1256 20 16.6168 20 13.6 20Z"
      fill="#ffffff" fill-rule="evenodd" opacity="1" stroke="none" />
    <path
      d="M17.8816 8.4936L14.7136 5.6432C13.812 4.8312 13.3616 4.4248 12.8072 4.2128L12.8 6.4C12.8 8.2856 12.8 9.2288 13.3856 9.8144C13.9712 10.4 14.9144 10.4 16.8 10.4L19.664 10.4C19.3744 9.8368 18.8544 9.3696 17.8816 8.4936Z"
      fill="#ffffff" fill-rule="nonzero" opacity="1" stroke="none" />
  </g>
</svg>