<?xml version="1.0" encoding="UTF-8" standalone="no"?>
<!DOCTYPE svg PUBLIC "-//W3C//DTD SVG 1.1//EN" "http://www.w3.org/Graphics/SVG/1.1/DTD/svg11.dtd">
<!-- Created with Vectornator (http://vectornator.io/) -->
<svg stroke-miterlimit="10" style="fill-rule:nonzero;clip-rule:evenodd;stroke-linecap:round;stroke-linejoin:round;"
  version="1.1" viewBox="0 0 20 20" xml:space="preserve" xmlns="http://www.w3.org/2000/svg"
  xmlns:xlink="http://www.w3.org/1999/xlink">
  <g>
    <path
      d="M18 10.1585C18 9.89104 17.8918 9.63492 17.7 9.44849L14.8098 6.60835C14.4079 6.21645 13.7668 6.21645 13.3648 6.60835C13.1732 6.79491 13.0651 7.05097 13.0651 7.31839C13.0651 7.5858 13.1732 7.84186 13.3648 8.02842L15.5329 10.1585L13.3648 12.2886C13.1735 12.4752 13.0656 12.731 13.0656 12.9982C13.0656 13.2653 13.1735 13.5212 13.3648 13.7077C13.7648 14.0997 14.4108 14.0997 14.8098 13.7077L17.7 10.8676C17.9 10.6726 18 10.4155 18 10.1575L18 10.1585ZM4.46633 10.1585L6.63444 8.02842C6.82602 7.84186 6.93409 7.5858 6.93409 7.31839C6.93409 7.05097 6.82602 6.79491 6.63444 6.60835C6.23246 6.21645 5.59134 6.21645 5.18936 6.60835L2.29922 9.44849C2.10789 9.63519 2 9.8912 2 10.1585C2 10.4259 2.10789 10.6819 2.29922 10.8686L5.18936 13.7077C5.59134 14.0996 6.23246 14.0996 6.63444 13.7077C6.82602 13.5211 6.93409 13.2651 6.93409 12.9977C6.93409 12.7303 6.82602 12.4742 6.63444 12.2876L4.46633 10.1575L4.46633 10.1585ZM11.0137 6.03532C11.5597 6.17933 11.8837 6.72936 11.7367 7.26538L10.1496 13.0837C9.99702 13.6232 9.43891 13.9397 8.89755 13.7937C8.63773 13.7279 8.4151 13.5607 8.27942 13.3296C8.14374 13.0985 8.10632 12.8226 8.17551 12.5636L9.76259 6.74536C9.91519 6.20631 10.4726 5.88995 11.0137 6.03532Z"
      fill="#ffffff" fill-rule="nonzero" opacity="1" stroke="none" />
  </g>
</svg>